<?xml version="1.0" encoding="utf-8"?>
<!-- Generator: Adobe Illustrator 19.0.0, SVG Export Plug-In . SVG Version: 6.00 Build 0)  -->
<svg version="1.1" id="Layer_1" xmlns="http://www.w3.org/2000/svg" xmlns:xlink="http://www.w3.org/1999/xlink" x="0px" y="0px"
	 viewBox="-265 388.9 64 64" style="enable-background:new -265 388.9 64 64;" xml:space="preserve">
<style type="text/css">
	.st0{fill:#FFFFFF;}
</style>
<path class="st0" d="M-222,391.1c-2.7,0-5.1,0.7-7.3,1.9c0,0,0,0,0,0c-2,0.9-3.2-0.3-3.2-0.3s0,0,0,0c-2.8-2.4-6.4-3.9-10.3-3.9
	c-8.7,0-15.8,7.1-15.8,15.8c0,2.8,0.7,5.3,2,7.6h0c0,0,7,13.3,7.4,14.7c0.9,2.6,1.7,4.9,2,6c0.8,3.1,2.9,17.6,9.3,19.8
	c0.3,0.1,0.9,0.1,1.1-0.1c0.4-0.5,0.5-1.6,0.1-3.2v0c0,0-0.9-3.1-0.7-4.9c0.3-4.5,1.9-11.2,2.1-12c0.4-1.7,3.4-1,3.4-1l0,0
	c1.2,0.6,2.1,1,2.7,1.2l0,0c0,0,1.6,0.6,2.2,3.1c0,0.2,0.1,0.5,0.1,0.8c0,0.2,0.1,0.4,0.1,0.7c0,0.2,0,0.3,0.1,0.5c0,0,0,0.1,0,0.1
	c0.2,2.6,0.3,6.6-0.2,12.6c0,0,0,0,0,0c-0.1,1.5,0.7,2,0.7,2c0.3,0.1,0.7,0.2,1.1,0.2c0.7,0,1.4-0.2,1.9-0.7
	c0.3-0.3,0.5-0.5,0.8-0.9c3.8-4.7,5.4-6.2,6.1-16.6c0.5-7.1,3.1-13.5,5.1-17.7l1.8-3.3v0c1.5-2.3,2.3-5,2.3-7.9
	C-207.3,397.7-213.9,391.1-222,391.1z"/>
</svg>
