<?xml version="1.0" encoding="utf-8"?>
<!-- Generator: Adobe Illustrator 19.0.0, SVG Export Plug-In . SVG Version: 6.00 Build 0)  -->
<svg version="1.1" xmlns="http://www.w3.org/2000/svg" xmlns:xlink="http://www.w3.org/1999/xlink" x="0px" y="0px"
	 viewBox="-175 298.8 244.1 244.1" style="enable-background:new -175 298.8 244.1 244.1;" xml:space="preserve">
<style type="text/css">
	.st0{fill:#FFFFFF;}
	.st1{fill:#4BBFD8;}
</style>
<g id="Слой_1">
	<circle id="XMLID_22_" class="st0" cx="-53" cy="420.8" r="122"/>
	<g id="Слой_2">
	</g>
	<path id="XMLID_6_" class="st1" d="M69.1,420.8C69.1,355,17,301.4-48.2,298.9l0,0c-0.1,0-0.1,0-0.2,0c-0.7,0-1.3,0-2-0.1
		c-0.9,0-1.8,0-2.7,0c-67.3,0-121.9,54.6-121.9,122s54.6,122,122,122c0.9,0,1.8,0,2.6,0c0.7,0,1.3,0,2-0.1h0.1l0,0
		C17,540.3,69.1,486.6,69.1,420.8z M-104,416c2,6,3.8,11.7,4.1,14.8c0.5,5.4-0.1,12.3-0.6,19.6c-0.9,11.6-1.9,23.6,0.9,33.7
		c4.7,17.1,19.6,29.6,20.2,30.1c1.4,1.1,3.1,1.8,4.8,1.9c0.2,0,0.3,0,0.5,0c4.5,0,8.2-3.7,8.2-8.2c0-0.7-0.1-1.5-0.3-2.1
		c-0.7-4.1-4.3-27.3,1.1-42.1c4-10.9,9.8-16.7,12.3-18.3v91.7h-0.1c-31.1,0-60.3-12.1-82.2-34.1c-22-22-34.1-51.2-34.1-82.2
		c0-31.1,12.1-60.3,34.1-82.2c21.9-22,51.1-34.1,82.1-34.1h0.1v49.3c-1.1,0-3.7-1.1-5.7-2c-4.6-2-11-4.7-18.7-4.7
		c-7.2,0-14.2,2.2-21.5,6.8C-119.9,367.2-110.3,396.6-104,416z M-1.6,416c-2,6-3.8,11.7-4.1,14.8c-0.5,5.4,0.1,12.3,0.6,19.6
		C-4.2,462-3.2,474-6,484.2c-4.7,17.1-19.6,29.6-20.2,30.1c-1.5,1.2-3.3,1.9-5.2,1.9c-1.4,0-2.9-0.4-4.2-1.1c-3-1.8-4.5-5.2-3.9-8.5
		c0.1-0.3,4.9-26.5-1-42.7c-4-11-9.9-16.8-12.4-18.4c0,0,0,0-0.1,0v-91.7c0,0,0,0,0.1,0c1.1,0,3.7-1.1,5.8-2c4.6-2,11-4.7,18.7-4.7
		c7.2,0,14.2,2.2,21.5,6.8C14.4,367.2,4.8,396.6-1.6,416z"/>
	<path id="XMLID_4_" class="st0" d="M-9.3,404.5c-5.6-28.9-33.9-42.4-16.2-47.3C-7.9,352.3,1.9,397.5-9.3,404.5z"/>
	<path id="XMLID_3_" class="st1" d="M-25.6,357.2c-17.6,4.9,10.6,18.4,16.2,47.3C1.9,397.5-7.9,352.3-25.6,357.2z"/>
</g>
<g id="Слой_3">
	<rect x="-175" y="298.8" class="st0" width="122" height="39"/>
	<rect x="-175" y="325" class="st0" width="57.6" height="217.8"/>
	<rect x="-146.2" y="516.2" class="st0" width="93.2" height="26.6"/>
</g>
</svg>
